{
	"accessors": [
		{
			"bufferView": 0,
			"byteOffset": 0,
			"componentType": 5126,
			"count": 444,
			"max": [
				0.25890374183654785,
				23.54339027404785,
				0.6980454921722412
			],
			"min": [
				-7.232563018798828,
				1.4610881805419922,
				-0.6980454921722412
			],
			"type": "VEC3"
		},
		{
			"bufferView": 1,
			"byteOffset": 0,
			"componentType": 5126,
			"count": 444,
			"max": [
				0.9998286366462708,
				0.9949613213539124,
				1.0
			],
			"min": [
				-0.9934040904045105,
				-0.9996018409729004,
				-1.0
			],
			"type": "VEC3"
		},
		{
			"bufferView": 2,
			"byteOffset": 0,
			"componentType": 5126,
			"count": 444,
			"max": [
				0.9641968011856079,
				0.9921262264251709,
				1.0,
				1.0
			],
			"min": [
				-0.9660924077033997,
				-0.9813330769538879,
				-1.0,
				1.0
			],
			"type": "VEC4"
		},
		{
			"bufferView": 3,
			"byteOffset": 0,
			"componentType": 5126,
			"count": 444,
			"max": [
				0.9943405389785767,
				0.9880514144897461
			],
			"min": [
				0.5820658206939697,
				0.28581786155700684
			],
			"type": "VEC2"
		},
		{
			"bufferView": 4,
			"byteOffset": 0,
			"componentType": 5126,
			"count": 444,
			"max": [
				0.9243865013122559,
				0.7386156320571899
			],
			"min": [
				0.19204190373420715,
				0.3868407905101776
			],
			"type": "VEC2"
		},
		{
			"bufferView": 5,
			"byteOffset": 0,
			"componentType": 5125,
			"count": 1728,
			"type": "SCALAR"
		},
		{
			"bufferView": 6,
			"byteOffset": 0,
			"componentType": 5126,
			"count": 559,
			"max": [
				-5.938566207885742,
				28.19179916381836,
				1.102251410484314
			],
			"min": [
				-8.914023399353027,
				23.077247619628906,
				-1.102251410484314
			],
			"type": "VEC3"
		},
		{
			"bufferView": 7,
			"byteOffset": 0,
			"componentType": 5126,
			"count": 559,
			"max": [
				0.9974272847175598,
				0.9892556071281433,
				0.9997843503952026
			],
			"min": [
				-0.9999154806137085,
				-0.4782557487487793,
				-0.9997844099998474
			],
			"type": "VEC3"
		},
		{
			"bufferView": 8,
			"byteOffset": 0,
			"componentType": 5126,
			"count": 559,
			"max": [
				0.984843909740448,
				0.8395912647247314,
				0.8998159170150757,
				1.0
			],
			"min": [
				-0.7504174709320068,
				-0.9999154210090637,
				-0.8998152613639832,
				1.0
			],
			"type": "VEC4"
		},
		{
			"bufferView": 9,
			"byteOffset": 0,
			"componentType": 5126,
			"count": 559,
			"max": [
				0.9705837965011597,
				0.8813045024871826
			],
			"min": [
				0.49683770537376404,
				0.01150202751159668
			],
			"type": "VEC2"
		},
		{
			"bufferView": 10,
			"byteOffset": 0,
			"componentType": 5126,
			"count": 559,
			"max": [
				0.4933529794216156,
				0.7437988519668579
			],
			"min": [
				0.026349902153015137,
				0.366595059633255
			],
			"type": "VEC2"
		},
		{
			"bufferView": 11,
			"byteOffset": 0,
			"componentType": 5125,
			"count": 2160,
			"type": "SCALAR"
		},
		{
			"bufferView": 12,
			"byteOffset": 0,
			"componentType": 5126,
			"count": 444,
			"max": [
				2.6960363388061523,
				21.70854949951172,
				0.5242810249328613
			],
			"min": [
				-5.974499702453613,
				1.6593351364135742,
				-5.118830680847168
			],
			"type": "VEC3"
		},
		{
			"bufferView": 13,
			"byteOffset": 0,
			"componentType": 5126,
			"count": 444,
			"max": [
				0.999212920665741,
				0.9964624047279358,
				0.993825376033783
			],
			"min": [
				-0.9991686344146729,
				-0.9964934587478638,
				-0.9780941009521484
			],
			"type": "VEC3"
		},
		{
			"bufferView": 14,
			"byteOffset": 0,
			"componentType": 5126,
			"count": 444,
			"max": [
				0.9996097087860107,
				0.9343338012695313,
				0.9994233846664429,
				1.0
			],
			"min": [
				-0.9245901703834534,
				-0.9994413256645203,
				-0.9884330034255981,
				1.0
			],
			"type": "VEC4"
		},
		{
			"bufferView": 15,
			"byteOffset": 0,
			"componentType": 5126,
			"count": 444,
			"max": [
				0.7577008008956909,
				0.9811859130859375
			],
			"min": [
				0.01634770818054676,
				0.021099548786878586
			],
			"type": "VEC2"
		},
		{
			"bufferView": 16,
			"byteOffset": 0,
			"componentType": 5126,
			"count": 444,
			"max": [
				0.9243865013122559,
				0.7395808696746826
			],
			"min": [
				0.19204190373420715,
				0.3868407905101776
			],
			"type": "VEC2"
		},
		{
			"bufferView": 17,
			"byteOffset": 0,
			"componentType": 5125,
			"count": 1728,
			"type": "SCALAR"
		},
		{
			"bufferView": 18,
			"byteOffset": 0,
			"componentType": 5126,
			"count": 559,
			"max": [
				-4.773530960083008,
				25.6085147857666,
				-3.8764355182647705
			],
			"min": [
				-7.3002119064331055,
				21.119230270385742,
				-5.865478038787842
			],
			"type": "VEC3"
		},
		{
			"bufferView": 19,
			"byteOffset": 0,
			"componentType": 5126,
			"count": 559,
			"max": [
				0.9886949062347412,
				0.9969639182090759,
				0.9951760172843933
			],
			"min": [
				-0.9978117346763611,
				-0.5899292826652527,
				-0.9945722818374634
			],
			"type": "VEC3"
		},
		{
			"bufferView": 20,
			"byteOffset": 0,
			"componentType": 5126,
			"count": 559,
			"max": [
				0.9923738837242126,
				0.8620550632476807,
				0.9759255051612854,
				1.0
			],
			"min": [
				-0.6981291174888611,
				-0.9996862411499023,
				-0.7986029982566833,
				1.0
			],
			"type": "VEC4"
		},
		{
			"bufferView": 21,
			"byteOffset": 0,
			"componentType": 5126,
			"count": 559,
			"max": [
				0.9581152200698853,
				0.9820963740348816
			],
			"min": [
				0.2681707739830017,
				0.010977324098348618
			],
			"type": "VEC2"
		},
		{
			"bufferView": 22,
			"byteOffset": 0,
			"componentType": 5126,
			"count": 559,
			"max": [
				0.30891597270965576,
				0.7352409958839417
			],
			"min": [
				0.04219900071620941,
				0.5380434989929199
			],
			"type": "VEC2"
		},
		{
			"bufferView": 23,
			"byteOffset": 0,
			"componentType": 5125,
			"count": 2160,
			"type": "SCALAR"
		},
		{
			"bufferView": 24,
			"byteOffset": 0,
			"componentType": 5126,
			"count": 778,
			"max": [
				5.593217849731445,
				15.43567180633545,
				5.577557563781738
			],
			"min": [
				-5.578965187072754,
				-0.07610978931188583,
				-5.656527519226074
			],
			"type": "VEC3"
		},
		{
			"bufferView": 25,
			"byteOffset": 0,
			"componentType": 5126,
			"count": 778,
			"max": [
				0.9998826384544373,
				0.9999830722808838,
				0.9999784231185913
			],
			"min": [
				-0.9999451041221619,
				-0.9999948143959045,
				-0.9999797344207764
			],
			"type": "VEC3"
		},
		{
			"bufferView": 26,
			"byteOffset": 0,
			"componentType": 5126,
			"count": 778,
			"max": [
				0.9999995231628418,
				0.9992438554763794,
				0.9999322891235352,
				1.0
			],
			"min": [
				-0.9999867081642151,
				-0.9988254308700562,
				-0.999881386756897,
				1.0
			],
			"type": "VEC4"
		},
		{
			"bufferView": 27,
			"byteOffset": 0,
			"componentType": 5126,
			"count": 778,
			"max": [
				0.0,
				0.0,
				0.0,
				1.0
			],
			"min": [
				0.0,
				0.0,
				0.0,
				0.0
			],
			"type": "VEC4"
		},
		{
			"bufferView": 28,
			"byteOffset": 0,
			"componentType": 5126,
			"count": 778,
			"max": [
				0.76546710729599,
				0.9714916944503784
			],
			"min": [
				0.018901588395237923,
				0.13748972117900848
			],
			"type": "VEC2"
		},
		{
			"bufferView": 29,
			"byteOffset": 0,
			"componentType": 5126,
			"count": 778,
			"max": [
				0.9330727458000183,
				0.9667515754699707
			],
			"min": [
				0.021812891587615013,
				0.029428556561470032
			],
			"type": "VEC2"
		},
		{
			"bufferView": 30,
			"byteOffset": 0,
			"componentType": 5125,
			"count": 3312,
			"type": "SCALAR"
		}
	],
	"asset": {
		"extras": {
			"author": "한국문화재재단 (https://sketchfab.com/kor_heritage)",
			"created": "Tue Sep 28 19:50:55 2021",
			"license": "CC-BY-4.0 (http://creativecommons.org/licenses/by/4.0/)",
			"source": "https://sketchfab.com/3d-models/7278492bb5a44a4fbba220f2babdbc9e",
			"title": "대전 소대헌·호연재 고택"
		},
		"generator": "Gestaltor 2021.5.2 Barley Community",
		"version": "2.0"
	},
	"bufferViews": [
		{
			"buffer": 0,
			"byteLength": 5328,
			"byteOffset": 0,
			"byteStride": 12,
			"target": 34962
		},
		{
			"buffer": 0,
			"byteLength": 5328,
			"byteOffset": 5328,
			"byteStride": 12,
			"target": 34962
		},
		{
			"buffer": 0,
			"byteLength": 7104,
			"byteOffset": 10656,
			"byteStride": 16,
			"target": 34962
		},
		{
			"buffer": 0,
			"byteLength": 3552,
			"byteOffset": 17760,
			"byteStride": 8,
			"target": 34962
		},
		{
			"buffer": 0,
			"byteLength": 3552,
			"byteOffset": 21312,
			"byteStride": 8,
			"target": 34962
		},
		{
			"buffer": 0,
			"byteLength": 6912,
			"byteOffset": 24864,
			"target": 34963
		},
		{
			"buffer": 0,
			"byteLength": 6708,
			"byteOffset": 31776,
			"byteStride": 12,
			"target": 34962
		},
		{
			"buffer": 0,
			"byteLength": 6708,
			"byteOffset": 38484,
			"byteStride": 12,
			"target": 34962
		},
		{
			"buffer": 0,
			"byteLength": 8944,
			"byteOffset": 45192,
			"byteStride": 16,
			"target": 34962
		},
		{
			"buffer": 0,
			"byteLength": 4472,
			"byteOffset": 54136,
			"byteStride": 8,
			"target": 34962
		},
		{
			"buffer": 0,
			"byteLength": 4472,
			"byteOffset": 58608,
			"byteStride": 8,
			"target": 34962
		},
		{
			"buffer": 0,
			"byteLength": 8640,
			"byteOffset": 63080,
			"target": 34963
		},
		{
			"buffer": 0,
			"byteLength": 5328,
			"byteOffset": 71720,
			"byteStride": 12,
			"target": 34962
		},
		{
			"buffer": 0,
			"byteLength": 5328,
			"byteOffset": 77048,
			"byteStride": 12,
			"target": 34962
		},
		{
			"buffer": 0,
			"byteLength": 7104,
			"byteOffset": 82376,
			"byteStride": 16,
			"target": 34962
		},
		{
			"buffer": 0,
			"byteLength": 3552,
			"byteOffset": 89480,
			"byteStride": 8,
			"target": 34962
		},
		{
			"buffer": 0,
			"byteLength": 3552,
			"byteOffset": 93032,
			"byteStride": 8,
			"target": 34962
		},
		{
			"buffer": 0,
			"byteLength": 6912,
			"byteOffset": 96584,
			"target": 34963
		},
		{
			"buffer": 0,
			"byteLength": 6708,
			"byteOffset": 103496,
			"byteStride": 12,
			"target": 34962
		},
		{
			"buffer": 0,
			"byteLength": 6708,
			"byteOffset": 110204,
			"byteStride": 12,
			"target": 34962
		},
		{
			"buffer": 0,
			"byteLength": 8944,
			"byteOffset": 116912,
			"byteStride": 16,
			"target": 34962
		},
		{
			"buffer": 0,
			"byteLength": 4472,
			"byteOffset": 125856,
			"byteStride": 8,
			"target": 34962
		},
		{
			"buffer": 0,
			"byteLength": 4472,
			"byteOffset": 130328,
			"byteStride": 8,
			"target": 34962
		},
		{
			"buffer": 0,
			"byteLength": 8640,
			"byteOffset": 134800,
			"target": 34963
		},
		{
			"buffer": 0,
			"byteLength": 9336,
			"byteOffset": 143440,
			"byteStride": 12,
			"target": 34962
		},
		{
			"buffer": 0,
			"byteLength": 9336,
			"byteOffset": 152776,
			"byteStride": 12,
			"target": 34962
		},
		{
			"buffer": 0,
			"byteLength": 12448,
			"byteOffset": 162112,
			"byteStride": 16,
			"target": 34962
		},
		{
			"buffer": 0,
			"byteLength": 12448,
			"byteOffset": 174560,
			"byteStride": 16,
			"target": 34962
		},
		{
			"buffer": 0,
			"byteLength": 6224,
			"byteOffset": 187008,
			"byteStride": 8,
			"target": 34962
		},
		{
			"buffer": 0,
			"byteLength": 6224,
			"byteOffset": 193232,
			"byteStride": 8,
			"target": 34962
		},
		{
			"buffer": 0,
			"byteLength": 13248,
			"byteOffset": 199456,
			"target": 34963
		}
	],
	"buffers": [
		{
			"byteLength": 212704,
			"uri": "scene.bin"
		}
	],
	"images": [
		{
			"mimeType": "image/png",
			"uri": "textures/lambert3_emissive.png"
		},
		{
			"mimeType": "image/png",
			"uri": "textures/lambert3_normal.png"
		}
	],
	"materials": [
		{
			"doubleSided": true,
			"emissiveFactor": [
				1.0,
				1.0,
				1.0
			],
			"emissiveTexture": {
				"index": 0
			},
			"name": "lambert3",
			"normalTexture": {
				"index": 1
			},
			"pbrMetallicRoughness": {
				"baseColorFactor": [
					0.0,
					0.0,
					0.0,
					1.0
				],
				"metallicFactor": 0.0,
				"roughnessFactor": 0.6
			}
		},
		{
			"doubleSided": true,
			"name": "lambert2",
			"normalTexture": {
				"index": 1
			},
			"pbrMetallicRoughness": {
				"baseColorTexture": {
					"index": 0
				},
				"metallicFactor": 0.0,
				"roughnessFactor": 0.6
			}
		}
	],
	"meshes": [
		{
			"name": "Brush_01_lambert3_0",
			"primitives": [
				{
					"attributes": {
						"NORMAL": 1,
						"POSITION": 0,
						"TANGENT": 2,
						"TEXCOORD_0": 3,
						"TEXCOORD_1": 4
					},
					"indices": 5,
					"material": 0,
					"mode": 4
				}
			]
		},
		{
			"name": "Brush_01_lambert2_0",
			"primitives": [
				{
					"attributes": {
						"NORMAL": 7,
						"POSITION": 6,
						"TANGENT": 8,
						"TEXCOORD_0": 9,
						"TEXCOORD_1": 10
					},
					"indices": 11,
					"material": 1,
					"mode": 4
				}
			]
		},
		{
			"name": "Brush_02_lambert3_0",
			"primitives": [
				{
					"attributes": {
						"NORMAL": 13,
						"POSITION": 12,
						"TANGENT": 14,
						"TEXCOORD_0": 15,
						"TEXCOORD_1": 16
					},
					"indices": 17,
					"material": 0,
					"mode": 4
				}
			]
		},
		{
			"name": "Brush_02_lambert2_0",
			"primitives": [
				{
					"attributes": {
						"NORMAL": 19,
						"POSITION": 18,
						"TANGENT": 20,
						"TEXCOORD_0": 21,
						"TEXCOORD_1": 22
					},
					"indices": 23,
					"material": 1,
					"mode": 4
				}
			]
		},
		{
			"name": "Cylinder_lambert3_0",
			"primitives": [
				{
					"attributes": {
						"COLOR_0": 27,
						"NORMAL": 25,
						"POSITION": 24,
						"TANGENT": 26,
						"TEXCOORD_0": 28,
						"TEXCOORD_1": 29
					},
					"indices": 30,
					"material": 0,
					"mode": 4
				}
			]
		}
	],
	"nodes": [
		{
			"children": [
				1
			],
			"matrix": [
				0.02,
				0.0,
				0.0,
				0.0,
				0.0,
				4.440892098500626e-18,
				-0.02,
				0.0,
				0.0,
				0.02,
				4.440892098500626e-18,
				0.0,
				0.0,
				0.0,
				0.0,
				1.0
			],
			"name": "Sketchfab_model"
		},
		{
			"children": [
				2
			],
			"matrix": [
				1.0,
				0.0,
				0.0,
				0.0,
				0.0,
				2.220446049250313e-16,
				1.0,
				0.0,
				0.0,
				-1.0,
				2.220446049250313e-16,
				0.0,
				0.0,
				0.0,
				0.0,
				1.0
			],
			"name": "255cbea349914d448ac9a9da1e187355.fbx"
		},
		{
			"children": [
				3
			],
			"name": "RootNode"
		},
		{
			"children": [
				4,
				7,
				10
			],
			"name": "SDH_007_3_PLY"
		},
		{
			"children": [
				5,
				6
			],
			"name": "Brush_01"
		},
		{
			"mesh": 0,
			"name": "Brush_01_lambert3_0"
		},
		{
			"mesh": 1,
			"name": "Brush_01_lambert2_0"
		},
		{
			"children": [
				8,
				9
			],
			"name": "Brush_02"
		},
		{
			"mesh": 2,
			"name": "Brush_02_lambert3_0"
		},
		{
			"mesh": 3,
			"name": "Brush_02_lambert2_0"
		},
		{
			"children": [
				11
			],
			"name": "Cylinder"
		},
		{
			"mesh": 4,
			"name": "Cylinder_lambert3_0"
		}
	],
	"samplers": [
		{
			"magFilter": 9729,
			"minFilter": 9987,
			"wrapS": 10497,
			"wrapT": 10497
		}
	],
	"scene": 0,
	"scenes": [
		{
			"name": "Sketchfab_Scene",
			"nodes": [
				0
			]
		}
	],
	"textures": [
		{
			"sampler": 0,
			"source": 0
		},
		{
			"sampler": 0,
			"source": 1
		}
	]
}