{
	"accessors": [
		{
			"bufferView": 0,
			"byteOffset": 0,
			"componentType": 5126,
			"count": 10903,
			"max": [
				28.54815673828125,
				172.94813537597656,
				6.244553089141846
			],
			"min": [
				-32.63467788696289,
				-0.16219693422317505,
				-32.7786979675293
			],
			"type": "VEC3"
		},
		{
			"bufferView": 1,
			"byteOffset": 0,
			"componentType": 5126,
			"count": 10903,
			"max": [
				0.9999408721923828,
				0.9996881484985352,
				0.9999582767486572
			],
			"min": [
				-0.9999228715896606,
				-0.9999998807907104,
				-0.9999886751174927
			],
			"type": "VEC3"
		},
		{
			"bufferView": 2,
			"byteOffset": 0,
			"componentType": 5126,
			"count": 10903,
			"max": [
				0.9973723888397217,
				0.9838083982467651
			],
			"min": [
				0.0008036665967665613,
				0.00031316280364990234
			],
			"type": "VEC2"
		},
		{
			"bufferView": 3,
			"byteOffset": 0,
			"componentType": 5125,
			"count": 60000,
			"type": "SCALAR"
		},
		{
			"bufferView": 4,
			"byteOffset": 0,
			"componentType": 5126,
			"count": 5,
			"max": [
				10.416666984558105
			],
			"min": [
				0.0416666679084301
			],
			"type": "SCALAR"
		},
		{
			"bufferView": 5,
			"byteOffset": 0,
			"componentType": 5126,
			"count": 5,
			"max": [
				0.0,
				0.0,
				-0.0
			],
			"min": [
				0.0,
				-383.8765563964844,
				-0.0
			],
			"type": "VEC3"
		},
		{
			"bufferView": 6,
			"byteOffset": 0,
			"componentType": 5126,
			"count": 3,
			"max": [
				1.625
			],
			"min": [
				1.5416666269302368
			],
			"type": "SCALAR"
		},
		{
			"bufferView": 7,
			"byteOffset": 0,
			"componentType": 5126,
			"count": 3,
			"max": [
				0.0,
				0.0,
				-0.0
			],
			"min": [
				0.0,
				-383.8765563964844,
				-0.0
			],
			"type": "VEC3"
		}
	],
	"animations": [
		{
			"channels": [
				{
					"sampler": 0,
					"target": {
						"node": 3,
						"path": "translation"
					}
				}
			],
			"name": "Action",
			"samplers": [
				{
					"input": 4,
					"interpolation": "LINEAR",
					"output": 5
				}
			]
		},
		{
			"channels": [
				{
					"sampler": 0,
					"target": {
						"node": 3,
						"path": "translation"
					}
				}
			],
			"name": "Frame_0038Action",
			"samplers": [
				{
					"input": 6,
					"interpolation": "LINEAR",
					"output": 7
				}
			]
		}
	],
	"asset": {
		"extras": {
			"author": "한국문화재재단 (https://sketchfab.com/kor_heritage)",
			"created": "Thu Dec  9 02:30:58 2021",
			"license": "CC-BY-4.0 (http://creativecommons.org/licenses/by/4.0/)",
			"source": "https://sketchfab.com/3d-models/--04158af4fcdb4d6db43fd6ca4e575779",
			"title": "택견_생활택견 준비동작"
		},
		"generator": "Gestaltor 2021.5.2 Barley Community",
		"version": "2.0"
	},
	"bufferViews": [
		{
			"buffer": 0,
			"byteLength": 130836,
			"byteOffset": 0,
			"byteStride": 12,
			"target": 34962
		},
		{
			"buffer": 0,
			"byteLength": 130836,
			"byteOffset": 130836,
			"byteStride": 12,
			"target": 34962
		},
		{
			"buffer": 0,
			"byteLength": 87224,
			"byteOffset": 261672,
			"byteStride": 8,
			"target": 34962
		},
		{
			"buffer": 0,
			"byteLength": 240000,
			"byteOffset": 348896,
			"target": 34963
		},
		{
			"buffer": 0,
			"byteLength": 20,
			"byteOffset": 588896
		},
		{
			"buffer": 0,
			"byteLength": 60,
			"byteOffset": 588916,
			"byteStride": 12
		},
		{
			"buffer": 0,
			"byteLength": 12,
			"byteOffset": 588976
		},
		{
			"buffer": 0,
			"byteLength": 36,
			"byteOffset": 588988,
			"byteStride": 12
		}
	],
	"buffers": [
		{
			"byteLength": 589024,
			"uri": "scene.bin"
		}
	],
	"images": [
		{
			"mimeType": "image/jpeg",
			"uri": "textures/Mesh_0038_baseColor.jpeg"
		}
	],
	"materials": [
		{
			"name": "Mesh_0038",
			"pbrMetallicRoughness": {
				"baseColorTexture": {
					"index": 0
				},
				"metallicFactor": 0.0,
				"roughnessFactor": 0.5
			}
		}
	],
	"meshes": [
		{
			"name": "Object_0",
			"primitives": [
				{
					"attributes": {
						"NORMAL": 1,
						"POSITION": 0,
						"TEXCOORD_0": 2
					},
					"indices": 3,
					"material": 0,
					"mode": 4
				}
			]
		}
	],
	"nodes": [
		{
			"children": [
				1
			],
			"matrix": [
				-0.01999999999999993,
				0.0,
				1.748455531469514e-09,
				0.0,
				0.0,
				0.02,
				0.0,
				0.0,
				-1.748455531469514e-09,
				0.0,
				-0.01999999999999993,
				0.0,
				0.0,
				0.0,
				0.0,
				1.0
			],
			"name": "Sketchfab_model"
		},
		{
			"children": [
				2
			],
			"name": "root"
		},
		{
			"children": [
				3
			],
			"matrix": [
				1.0,
				0.0,
				0.0,
				0.0,
				0.0,
				1.0,
				0.0,
				0.0,
				0.0,
				0.0,
				1.0,
				0.0,
				0.0,
				0.0,
				0.0,
				1.0
			],
			"name": "GLTF_SceneRootNode"
		},
		{
			"children": [
				4
			],
			"name": "Frame_0038_0",
			"translation": [
				0.0,
				0.0,
				0.0
			]
		},
		{
			"mesh": 0,
			"name": "Object_4"
		}
	],
	"samplers": [
		{
			"magFilter": 9729,
			"minFilter": 9987,
			"wrapS": 10497,
			"wrapT": 10497
		}
	],
	"scene": 0,
	"scenes": [
		{
			"name": "Sketchfab_Scene",
			"nodes": [
				0
			]
		}
	],
	"textures": [
		{
			"sampler": 0,
			"source": 0
		}
	]
}